<?xml version="1.0" encoding="UTF-8"?>
<svg version="1.1" xmlns="http://www.w3.org/2000/svg" width="524" height="524">
<path d="M0 0 C172.92 0 345.84 0 524 0 C524 172.92 524 345.84 524 524 C351.08 524 178.16 524 0 524 C0 351.08 0 178.16 0 0 Z " fill="#FEFEFE" transform="translate(0,0)"/>
<path d="M0 0 C1.98162901 1.05837004 3.761649 1.59723232 5.95507812 2.04418945 C5.95507812 2.70418945 5.95507812 3.36418945 5.95507812 4.04418945 C6.69757813 4.32391602 7.44007813 4.60364258 8.20507812 4.8918457 C17.06321138 8.60370552 24.24672956 15.49207021 31.41357422 21.72827148 C32.88315534 22.98279195 34.39687301 24.18505489 35.91210938 25.3840332 C38.25650903 27.32442438 40.2055275 29.41720987 42.17602539 31.73510742 C45.77207272 35.88583863 49.56543414 39.78323772 53.46289062 43.6496582 C54.15140106 44.33675369 54.8399115 45.02384918 55.54928589 45.73176575 C57.72385139 47.90079561 59.90188198 50.06630623 62.08007812 52.23168945 C63.54775961 53.69434574 65.01520947 55.1572345 66.48242188 56.62036133 C69.17386461 59.30368546 71.86661821 61.98567809 74.56103516 64.66601562 C77.36355256 67.45425472 80.16104028 70.24744944 82.95507812 73.04418945 C83.87836914 73.96748047 83.87836914 73.96748047 84.8203125 74.90942383 C88.00065104 78.08976237 91.18098958 81.27010091 94.36132812 84.45043945 C95.28727783 85.37530151 95.28727783 85.37530151 96.23193359 86.31884766 C97.72045852 87.80927067 99.20173783 89.30692357 100.68164062 90.8059082 C102.66759334 92.76115031 104.6936353 94.57041049 106.83007812 96.35668945 C110.34680506 99.39657206 113.36561376 102.67076955 116.37695312 106.2043457 C119.57525358 109.93305738 123.09969085 113.17762621 126.83007812 116.35668945 C130.29061778 119.3480034 133.28516276 122.54568026 136.21679688 126.05200195 C138.35470321 128.50218674 140.64057781 130.75983458 142.95507812 133.04418945 C144.00791333 134.09552037 145.05995874 135.14764266 146.11132812 136.20043945 C146.65917969 136.74829102 147.20703125 137.29614258 147.77148438 137.8605957 C149.44726562 139.53637695 151.12304688 141.2121582 152.79882812 142.88793945 C153.3322583 143.42056396 153.86568848 143.95318848 154.4152832 144.50195312 C155.84450498 145.93344099 157.2653862 147.37324299 158.68554688 148.8137207 C160.95998347 151.13483454 160.95998347 151.13483454 163.76757812 153.23168945 C166.50159206 156.74685023 166.83278848 158.98519898 166.53350163 163.3710022 C165.8746662 166.41581357 165.00103358 167.61593064 162.89170837 169.86987305 C162.25552519 170.55740662 161.619342 171.24494019 160.96388054 171.95330811 C160.30097574 172.64329895 159.63807095 173.33328979 158.95507812 174.04418945 C158.3445566 174.68696838 157.73403507 175.32974731 157.10501289 175.99200439 C155.15899413 178.01784409 153.19230087 180.02149274 151.21899414 182.02075195 C150.47979736 182.7729451 149.74060059 183.52513824 148.97900391 184.30012512 C141.33262568 192.07212465 133.65197724 199.8103528 125.96850586 207.5456543 C122.32570396 211.21532919 118.69425612 214.89571768 115.07202148 218.58569336 C110.6854615 223.05404311 106.27971963 227.5025949 101.85954094 231.93768311 C100.18172384 233.62775706 98.51081498 235.32471851 96.84704781 237.02862549 C94.52321372 239.40574961 92.17556329 241.75659494 89.82055664 244.1027832 C89.1403093 244.81022171 88.46006195 245.51766022 87.75920105 246.24653625 C84.49865872 249.44454618 82.31935646 251.45822254 77.62142944 251.54229736 C70.20359128 250.53451509 66.36812109 245.6662421 61.38867188 240.49731445 C59.91969608 238.99819972 58.45028198 237.49951438 56.98046875 236.0012207 C54.67544308 233.64021549 52.37454199 231.27553033 50.08129883 228.90307617 C47.86141096 226.61095254 45.62638656 224.33451837 43.38867188 222.05981445 C42.36041542 220.98343719 42.36041542 220.98343719 41.31138611 219.88531494 C40.66714188 219.23423767 40.02289764 218.5831604 39.35913086 217.91235352 C38.51571388 217.04323334 38.51571388 217.04323334 37.65525818 216.15655518 C35.99909613 214.81707032 35.99909613 214.81707032 33.86781311 215.26483154 C31.33579753 216.29651988 29.80463222 217.78206949 27.83007812 219.66918945 C14.42759536 231.93475688 -2.86766398 242.18496349 -20.60742188 246.40356445 C-23.07557258 246.99054851 -23.07557258 246.99054851 -25.43164062 248.05200195 C-49.92554926 257.35163244 -85.36482565 251.76480713 -109.04492188 243.04418945 C-109.04492188 242.38418945 -109.04492188 241.72418945 -109.04492188 241.04418945 C-110.99398437 240.70387695 -110.99398437 240.70387695 -112.98242188 240.35668945 C-118.30543794 239.16087929 -122.43668469 236.89690771 -127.04492188 234.04418945 C-127.92277344 233.52727539 -128.800625 233.01036133 -129.70507812 232.4777832 C-135.59683564 228.90626775 -140.68000112 224.9315483 -145.70898438 220.2277832 C-147.79164028 218.28095268 -149.92516435 216.43961326 -152.10742188 214.60668945 C-156.03942238 211.19684596 -159.38654743 207.36179063 -162.81835938 203.45825195 C-165.41351112 200.64456112 -168.21288159 198.22591923 -171.13476562 195.76293945 C-173.8270063 193.3404734 -176.12082503 190.63685152 -178.46679688 187.8840332 C-181.66509733 184.15532153 -185.1895346 180.91075269 -188.91992188 177.73168945 C-192.43664881 174.69180685 -195.45545751 171.41760935 -198.46679688 167.8840332 C-201.66509733 164.15532153 -205.1895346 160.91075269 -208.91992188 157.73168945 C-212.43664881 154.69180685 -215.45545751 151.41760935 -218.46679688 147.8840332 C-222.19650395 143.5357856 -226.39236147 139.83093941 -230.78710938 136.1809082 C-232.7030258 134.36774854 -234.35294237 132.54730376 -236.05761719 130.54296875 C-240.50531459 125.43476105 -245.29015245 120.69217815 -250.09960938 115.92700195 C-251.05157476 114.97945284 -252.00323961 114.03160169 -252.95462036 113.08346558 C-255.94021544 110.10917943 -258.92978451 107.13890812 -261.91992188 104.16918945 C-265.40870667 100.70404612 -268.89582209 97.23725495 -272.37878799 93.76626205 C-273.76886689 92.38265945 -275.16198703 91.0021145 -276.55514526 89.62161255 C-277.39336823 88.78669281 -278.23159119 87.95177307 -279.09521484 87.09155273 C-279.83577118 86.35623322 -280.57632751 85.6209137 -281.33932495 84.86331177 C-283.92185836 82.10888363 -284.31576114 80.12013535 -284.54492188 76.41918945 C-284.61710937 75.60192383 -284.68929687 74.7846582 -284.76367188 73.94262695 C-282.96410523 66.68567884 -274.69026432 60.50475817 -269.5559082 55.2512207 C-268.84264374 54.5185347 -268.12937927 53.78584869 -267.39450073 53.03096008 C-260.87524711 46.34429102 -254.32082112 39.6920885 -247.75539112 33.05078125 C-243.35597981 28.59980513 -238.96905998 24.13787986 -234.60913086 19.64819336 C-230.37403944 15.28761822 -226.11016879 10.95721867 -221.82452965 6.64633179 C-220.20221783 5.00442305 -218.59032329 3.35215092 -216.98941994 1.68936157 C-202.9094658 -12.90966937 -202.9094658 -12.90966937 -195.26782227 -13.19189453 C-191.04639224 -12.53015624 -188.11486235 -11.48120412 -185.14648438 -8.3034668 C-183.93847168 -7.07007568 -183.93847168 -7.07007568 -182.70605469 -5.81176758 C-181.82788086 -4.86930176 -180.94970703 -3.92683594 -180.04492188 -2.95581055 C-178.97830054 -1.89040042 -177.9060683 -0.83058616 -176.82910156 0.22436523 C-173.32890457 3.6552483 -169.87288705 7.12837 -166.41992188 10.60668945 C-165.21312728 11.81851371 -164.00609748 13.0301038 -162.79882812 14.24145508 C-159.87814781 17.17301416 -156.96064441 20.10769966 -154.04492188 23.04418945 C-150.54652264 21.37729423 -147.88506049 19.36798032 -144.91992188 16.85668945 C-137.72440631 10.895511 -130.3759877 5.56588976 -122.12304688 1.1652832 C-120.23511991 0.14679629 -118.43037413 -0.95211347 -116.60742188 -2.08081055 C-113.09848093 -4.09865418 -109.45783931 -5.16001773 -105.57226562 -6.2409668 C-103.25269442 -6.89704335 -101.00384077 -7.65143652 -98.73242188 -8.45581055 C-67.90065951 -18.8793601 -28.23409555 -17.08853361 0 0 Z " fill="#0048FE" transform="translate(321.044921875,142.955810546875)"/>
<path d="M0 0 C3.11203513 1.03683044 5.02162515 2.03752975 7.27470398 4.44924927 C8.08036804 5.27183228 8.8860321 6.09441528 9.71611023 6.94192505 C11.02902039 8.35127319 11.02902039 8.35127319 12.36845398 9.78909302 C13.42433274 10.84376168 14.48581409 11.89284314 15.55204773 12.93704224 C19.02140909 16.3369136 22.44640598 19.77920006 25.86845398 23.22659302 C27.05832091 24.42149076 28.24842373 25.61615365 29.43876648 26.81057739 C31.59842207 28.97832807 33.75681094 31.14732032 35.91337585 33.31814575 C37.39624889 34.81060378 38.88078073 36.30141977 40.36845398 37.78909302 C39.75099304 38.36014771 39.1335321 38.93120239 38.49736023 39.51956177 C29.57999917 48.05688309 22.4740305 57.46803205 17.36845398 68.78909302 C16.70845398 68.78909302 16.04845398 68.78909302 15.36845398 68.78909302 C15.26146179 69.64374146 15.1544696 70.49838989 15.04423523 71.37893677 C14.31959369 75.03565389 13.10575868 77.96556402 11.55595398 81.35159302 C4.4620592 97.37672688 1.96107151 112.92478459 2.05595398 130.41409302 C2.0586882 131.46341507 2.0586882 131.46341507 2.06147766 132.53393555 C2.15224374 153.28211499 5.08331055 172.46678825 15.48173523 190.74612427 C16.36845398 192.78909302 16.36845398 192.78909302 16.36845398 196.78909302 C17.02845398 196.78909302 17.68845398 196.78909302 18.36845398 196.78909302 C19.77079773 198.87112427 19.77079773 198.87112427 21.30595398 201.60159302 C23.07751922 204.74147718 24.67680851 207.37062948 27.36845398 209.78909302 C27.03845398 210.77909302 26.70845398 211.76909302 26.36845398 212.78909302 C21.77433347 209.03879056 17.83083526 205.17035647 13.98173523 200.66409302 C10.76664999 196.9274322 7.23707409 193.66693338 3.49345398 190.47659302 C-0.02327296 187.43671041 -3.04208165 184.16251292 -6.05342102 180.62893677 C-9.25172148 176.9002251 -12.77615875 173.65565626 -16.50654602 170.47659302 C-20.02327296 167.43671041 -23.04208165 164.16251292 -26.05342102 160.62893677 C-29.78312809 156.28068917 -33.97898561 152.57584298 -38.37373352 148.92581177 C-40.28964994 147.11265211 -41.93956651 145.29220733 -43.64424133 143.28787231 C-48.09193874 138.17966461 -52.8767766 133.43708171 -57.68623352 128.67190552 C-58.63819891 127.7243564 -59.58986376 126.77650526 -60.54124451 125.82836914 C-63.52683959 122.854083 -66.51640866 119.88381169 -69.50654602 116.91409302 C-72.99533082 113.44894969 -76.48244624 109.98215851 -79.96541214 106.51116562 C-81.35549104 105.12756301 -82.74861118 103.74701807 -84.14176941 102.36651611 C-84.97999237 101.53159637 -85.81821533 100.69667664 -86.68183899 99.8364563 C-87.42239532 99.10113678 -88.16295166 98.36581726 -88.9259491 97.60821533 C-91.50848251 94.8537872 -91.90238528 92.86503891 -92.13154602 89.16409302 C-92.20373352 88.34682739 -92.27592102 87.52956177 -92.35029602 86.68753052 C-90.55072937 79.4305824 -82.27688846 73.24966173 -77.14253235 67.99612427 C-76.42926788 67.26343826 -75.71600342 66.53075226 -74.98112488 65.77586365 C-68.46187125 59.08919458 -61.90744527 52.43699206 -55.34201527 45.79568481 C-50.94260395 41.3447087 -46.55568413 36.88278342 -42.195755 32.39309692 C-37.96066358 28.03252178 -33.69679293 23.70212223 -29.41115379 19.39123535 C-27.78884197 17.74932661 -26.17694743 16.09705449 -24.57604408 14.43426514 C-9.25583106 -1.45074854 -9.25583106 -1.45074854 0 0 Z " fill="#22DEFE" transform="translate(128.6315460205078,130.21090698242188)"/>
<path d="M0 0 C6.43422239 5.2961357 12.26478144 11.15077371 18.125 17.0625 C19.11044045 18.05296986 20.09611606 19.04320581 21.08203125 20.03320312 C22.89745722 21.85671889 24.71123951 23.68181212 26.52392578 25.50805664 C29.01064968 28.01071794 31.50415789 30.50643465 34 33 C37.80208333 36.80208333 41.60416667 40.60416667 45.40625 44.40625 C46.0235498 45.02282471 46.64084961 45.63939941 47.27685547 46.2746582 C48.76538039 47.76508122 50.2466597 49.26273411 51.7265625 50.76171875 C53.71251522 52.71696086 55.73855717 54.52622104 57.875 56.3125 C61.39172694 59.35238261 64.41053563 62.6265801 67.421875 66.16015625 C70.62017546 69.88886792 74.14461273 73.13343676 77.875 76.3125 C81.33553966 79.30381394 84.33008464 82.50149081 87.26171875 86.0078125 C89.39962508 88.45799729 91.68549969 90.71564513 94 93 C95.05283521 94.05133092 96.10488062 95.1034532 97.15625 96.15625 C97.70410156 96.70410156 98.25195312 97.25195312 98.81640625 97.81640625 C100.4921875 99.4921875 102.16796875 101.16796875 103.84375 102.84375 C104.64389526 103.64268677 104.64389526 103.64268677 105.46020508 104.45776367 C106.88942685 105.88925154 108.31030807 107.32905354 109.73046875 108.76953125 C112.00490535 111.09064508 112.00490535 111.09064508 114.8125 113.1875 C117.54651394 116.70266078 117.87771036 118.94100953 117.5784235 123.32681274 C116.91958808 126.37162411 116.04595545 127.57174119 113.93663025 129.82568359 C113.30044706 130.51321716 112.66426388 131.20075073 112.00880241 131.90911865 C111.34589762 132.5991095 110.68299282 133.28910034 110 134 C109.38947847 134.64277893 108.77895695 135.28555786 108.14993477 135.94781494 C106.203916 137.97365464 104.23722274 139.97730328 102.26391602 141.9765625 C101.52471924 142.72875565 100.78552246 143.48094879 100.02392578 144.25593567 C92.37754755 152.0279352 84.69689912 159.76616335 77.01342773 167.50146484 C73.37062583 171.17113974 69.73917799 174.85152823 66.11694336 178.54150391 C61.73038337 183.00985366 57.3246415 187.45840544 52.90446281 191.89349365 C51.22664571 193.5835676 49.55573686 195.28052906 47.89196968 196.98443604 C45.5681356 199.36156015 43.22048517 201.71240549 40.86547852 204.05859375 C40.18523117 204.76603226 39.50498383 205.47347076 38.80412292 206.2023468 C35.54355063 209.40038612 33.36401461 211.41405685 28.66607666 211.4985199 C21.30146752 210.4970667 17.3728432 205.6431267 12.36328125 200.55859375 C11.28230415 199.47337181 11.28230415 199.47337181 10.17948914 198.3662262 C7.88574051 196.06131745 5.59905186 193.74954618 3.3125 191.4375 C1.76283217 189.87779567 0.21270688 188.31854571 -1.33789062 186.75976562 C-4.74294501 183.33507198 -8.14356741 179.90604747 -11.54032898 176.47312927 C-12.69048346 175.3123703 -13.84453111 174.15546889 -15 173 C-14.39414062 172.37996094 -13.78828125 171.75992188 -13.1640625 171.12109375 C-5.28467591 162.79318823 2.16691612 153.48043732 7 143 C7.66 143 8.32 143 9 143 C9.17015625 142.3709375 9.3403125 141.741875 9.515625 141.09375 C10.67236791 137.00823248 11.79343525 133.15216229 13.875 129.4375 C20.39896473 116.89141399 21.97896982 102.88296254 23 89 C23.66 89 24.32 89 25 89 C24.19181766 62.55292971 20.98180684 35.1120031 7 12 C6.01 11.34 5.02 10.68 4 10 C4 8.68 4 7.36 4 6 C3.01 5.67 2.02 5.34 1 5 C0.67 3.35 0.34 1.7 0 0 Z " fill="#21DEFE" transform="translate(370,183)"/>
<path d="M0 0 C3.94691206 2.13384292 6.65787841 4.52041924 9.625 7.875 C10.38039063 8.71804687 11.13578125 9.56109375 11.9140625 10.4296875 C14.64015938 13.78881062 16.63058645 16.89175935 18 21 C18.66 21.33 19.32 21.66 20 22 C20.12375 22.598125 20.2475 23.19625 20.375 23.8125 C20.83600254 26.14010462 20.83600254 26.14010462 22.8203125 27.69140625 C25.49543966 30.52473986 26.94415962 33.60641392 28.5 37.125 C28.95499878 38.13892822 28.95499878 38.13892822 29.41918945 39.17333984 C30.01897508 40.51728314 30.61456894 41.86310651 31.20556641 43.2109375 C31.84157454 44.64322626 32.51447338 46.05911132 33.19921875 47.46875 C39.78683803 61.84173752 41.21168002 79.92154838 41.0625 95.5625 C41.05798828 96.47580078 41.05347656 97.38910156 41.04882812 98.33007812 C41.0371874 100.55345738 41.02083851 102.77669121 41 105 C40.34 105 39.68 105 39 105 C39.02320313 105.58265625 39.04640625 106.1653125 39.0703125 106.765625 C39.22297339 113.70079103 38.30882467 120.19878611 37 127 C36.67 127 36.34 127 36 127 C35.979375 126.01 35.95875 125.02 35.9375 124 C34.93465896 116.8347734 28.31800074 112.22712879 23 108 C22.02276866 106.89137622 21.06595581 105.76457445 20.125 104.625 C17.54164736 101.51700762 14.74964767 98.96654642 11.6484375 96.38671875 C7.78466928 93.13639241 4.49210058 89.42464775 1.1875 85.625 C-2.06366863 81.92518239 -5.50883619 78.72121593 -9.265625 75.546875 C-11.47094957 73.5799639 -13.15592083 71.30509897 -15 69 C-16.29626824 67.83583553 -17.61064813 66.69168306 -18.9375 65.5625 C-22.40263188 62.60430408 -25.14884184 59.54468311 -28 56 C-29.64740076 54.3142876 -31.31066078 52.6436814 -33 51 C-35.60652622 48.39347378 -35.43118693 47.04529487 -35.58764648 43.40649414 C-35.4726481 37.42908417 -34.03270196 34.67890396 -29.84181213 30.53355408 C-29.10124069 29.86119217 -28.36066925 29.18883026 -27.59765625 28.49609375 C-26.8453624 27.76552261 -26.09306854 27.03495148 -25.31797791 26.28224182 C-22.92634277 23.97053292 -20.4970852 21.70385033 -18.0625 19.4375 C-15.64084501 17.13069282 -13.22762539 14.81544211 -10.81773376 12.49635315 C-9.31956313 11.06041643 -7.81291575 9.63326138 -6.2971344 8.21592712 C-5.61650436 7.57418045 -4.93587433 6.93243378 -4.23461914 6.27124023 C-3.6328334 5.71009018 -3.03104767 5.14894012 -2.411026 4.57078552 C-0.75907945 2.94177183 -0.75907945 2.94177183 0 0 Z " fill="#017EFE" transform="translate(354,167)"/>
<path d="M0 0 C0.33 0 0.66 0 1 0 C1.309375 1.7325 1.309375 1.7325 1.625 3.5 C4.57893695 15.03249356 16.13372916 23.78326792 25 31 C27.70824568 33.57613613 30.13481988 36.16515435 32.5 39.0625 C34.83307793 41.99517233 34.83307793 41.99517233 37.4375 43.9375 C39.62442367 45.69770686 41.16624952 47.297239 42.9375 49.4375 C44.8604384 51.75287481 46.59038343 53.48989263 48.9375 55.4375 C52.11687826 58.0977961 54.66091421 60.94650588 57.34765625 64.0859375 C61.05085128 68.37569061 65.14388908 72.02878035 69.546875 75.5703125 C72.47035114 78.4466358 72.17566099 81.97935519 72.328125 85.8671875 C71.45894905 91.51683116 66.91285741 95.34168892 63.01171875 99.1484375 C62.43090042 99.72405426 61.85008209 100.29967102 61.25166321 100.89273071 C59.40166157 102.72500428 57.54510684 104.55043979 55.6875 106.375 C53.84145367 108.19324079 51.99696188 110.01299041 50.1554718 111.83584595 C49.01295638 112.96630708 47.8677814 114.09408948 46.71940613 115.21859741 C42.9228847 118.96837368 39.41543639 122.9008632 36 127 C32.31630017 125.28349383 30.07352431 123.26202652 27.3125 120.25 C26.52488281 119.40953125 25.73726562 118.5690625 24.92578125 117.703125 C22.7921881 114.7083046 22.31279284 112.62627629 22 109 C20.515 108.505 20.515 108.505 19 108 C17.61328125 106.22265625 17.61328125 106.22265625 16.3125 104.0625 C15.87550781 103.35222656 15.43851563 102.64195312 14.98828125 101.91015625 C14 100 14 100 14 98 C13.34 98 12.68 98 12 98 C11.51080078 96.67935547 11.51080078 96.67935547 11.01171875 95.33203125 C10.57472656 94.17058594 10.13773438 93.00914062 9.6875 91.8125 C9.25824219 90.66394531 8.82898438 89.51539063 8.38671875 88.33203125 C7.13347434 85.07080868 7.13347434 85.07080868 5.4921875 82.56640625 C3.56135161 79.2455707 2.50496108 75.788715 1.4375 72.125 C1.22931641 71.46242188 1.02113281 70.79984375 0.80664062 70.1171875 C-2.85295109 57.72734722 -3.37395208 44.89523075 -3.3125 32.0625 C-3.3122583 31.02089722 -3.3122583 31.02089722 -3.31201172 29.95825195 C-3.29551149 19.72221701 -2.74132254 9.9209768 0 0 Z " fill="#017DFE" transform="translate(133,229)"/>
<path d="M0 0 C0 7.20820307 -10.81054319 14.85525961 -15.71313477 19.77685547 C-19.13241488 23.19435897 -22.56242578 26.60090388 -26 30 C-26.99 29.67 -27.98 29.34 -29 29 C-19.43 19.43 -9.86 9.86 0 0 Z " fill="#54E6FE" transform="translate(87,163)"/>
<path d="M0 0 C6.84692381 10.27038571 3.99189119 31.82113953 1.92480469 43.46289062 C1.3457385 46.32494191 0.70919669 49.16743464 0 52 C-0.33 52 -0.66 52 -1 52 C-1.10349817 45.58311325 -0.74507544 39.37305598 0 33 C0.66 33 1.32 33 2 33 C1.48387169 21.98560228 0.94237063 10.9876405 0 0 Z " fill="#16C1FE" transform="translate(393,239)"/>
<path d="M0 0 C-1.35261234 3.10699073 -2.75243567 4.87539092 -5.375 7 C-11.26920629 11.96983814 -16.59382413 17.51273149 -22 23 C-22 20 -22 20 -20.20703125 17.9140625 C-19.41683594 17.15867188 -18.62664062 16.40328125 -17.8125 15.625 C-16.575 14.42810547 -16.575 14.42810547 -15.3125 13.20703125 C-14.549375 12.47871094 -13.78625 11.75039062 -13 11 C-12.113125 10.113125 -11.22625 9.22625 -10.3125 8.3125 C-9.549375 7.549375 -8.78625 6.78625 -8 6 C-7.484375 5.46117187 -6.96875 4.92234375 -6.4375 4.3671875 C-2.2125 0 -2.2125 0 0 0 Z " fill="#2469FE" transform="translate(181,157)"/>
<path d="M0 0 C0 3.69834896 -0.81364222 4.27081428 -3.25 6.9375 C-3.88550781 7.63746094 -4.52101563 8.33742187 -5.17578125 9.05859375 C-7.07727446 11.08223855 -8.99660415 13.07673998 -11 15 C-11.99 14.67 -12.98 14.34 -14 14 C-9.38 9.38 -4.76 4.76 0 0 Z " fill="#55E6FE" transform="translate(117,133)"/>
<path d="M0 0 C2.4375 1.5625 2.4375 1.5625 5 4 C5.8125 7.75 5.8125 7.75 6 11 C5.34 10.67 4.68 10.34 4 10 C4 8.68 4 7.36 4 6 C3.01 5.67 2.02 5.34 1 5 C0.67 3.35 0.34 1.7 0 0 Z " fill="#1DC5FE" transform="translate(370,183)"/>
</svg>
